<svg width="134" height="312" viewBox="0 0 134 312" fill="none" xmlns="http://www.w3.org/2000/svg">
<path d="M97.6705 0.236572C91.9361 14.3512 85.4934 28.148 78.3268 41.5959C75.6132 46.6897 72.7434 51.6949 69.9465 56.7418C58.6705 76.4762 46.0872 95.4449 32.2799 113.502C26.0195 121.684 24.0559 123.872 17.7695 131.377C12.4726 136.924 7.44654 143.601 1.30592 148.32C1.15488 148.054 0.868417 148.815 0.634042 148.705C0.57675 148.679 0.57675 148.492 0.628834 148.518C4.24863 150.591 7.89967 152.617 11.4101 154.872C11.5924 154.992 11.7122 155.606 11.5195 155.513C7.93092 153.799 4.49863 151.768 0.993417 149.898C6.24863 153.591 8.91529 155.294 14.259 160.299C37.4882 182.049 56.4413 207.877 75.3424 233.315C90.4986 254.586 105.264 276.19 118.452 298.752C119.78 300.377 120.29 302.575 121.447 304.31C121.738 304.742 122.009 303.435 122.264 302.981C125.868 305.106 129.457 307.257 133.077 309.351C133.29 309.476 132.749 308.971 132.53 308.862C132.16 308.669 131.566 308.429 131.217 308.283C129.827 307.705 128.483 307.216 127.254 306.278C127.04 306.122 127.04 305.794 126.936 305.554L126.665 305.414C126.54 305.533 126.457 305.804 126.285 305.773C125.592 305.648 123.176 304.648 122.275 304.283C121.728 304.08 120.941 303.711 120.863 303.851C120.79 303.992 121.29 304.101 121.139 304.231C124.9 306.56 128.66 308.882 132.421 311.205C132.712 310.794 133.046 310.403 133.301 309.966C133.415 309.763 133.118 309.304 133.072 309.221C131.999 307.294 130.697 305.507 129.535 303.638C114.441 280.903 98.7903 258.539 82.707 236.492C70.2851 219.83 64.7174 212.059 51.6653 195.804C43.8163 186.033 33.634 173.705 24.6601 164.518C20.6549 160.419 17.5611 158.044 13.4205 154.716C9.108 152.346 4.91529 149.737 0.483 147.596C0.243416 147.481 -0.152416 148.112 0.0611252 148.268C3.38925 150.783 6.97779 152.94 10.5038 155.169C10.6288 155.247 10.8007 154.174 11.0715 154.273C15.4726 147.914 20.4049 141.929 24.8945 135.632C43.0715 111.304 60.3684 86.2939 75.582 59.9814C87.2174 39.273 80.8215 50.7366 91.9986 30.5387C94.1497 26.6584 100.249 15.7626 102.759 10.9084C103.754 8.99178 104.743 6.70532 105.644 4.68449L97.6705 0.236572Z" fill="#5CC59E"/>
</svg>
