<svg width="112" height="308" viewBox="0 0 112 308" fill="none" xmlns="http://www.w3.org/2000/svg">
<path d="M18.6393 0.111572C18.9778 1.42928 19.233 2.76782 19.6497 4.0647C24.7382 19.7574 31.8632 34.7418 38.8528 49.648C47.1341 67.3043 51.6966 76.4293 60.2226 93.8251C71.9622 117.419 83.9466 140.898 96.457 164.096C97.6236 166.211 98.7591 168.341 99.9726 170.424C100.092 170.627 100.217 170.82 100.332 171.018C100.379 171.101 100.368 171.237 100.457 171.278C104.212 172.981 108.014 174.575 111.796 176.221C112.108 171.179 108.358 171.632 99.2643 170.211C97.9674 170.007 97.3736 172.039 96.5039 173.028C94.8632 174.882 93.3372 176.83 91.7539 178.737C89.2799 181.955 86.7643 185.143 84.3268 188.393C76.0195 199.466 71.457 206.023 63.1393 217.497C52.4049 232.309 41.5716 247.044 30.707 261.757C21.8997 273.513 12.983 285.195 3.58198 296.487C3.27469 296.841 2.97782 297.2 2.67053 297.554C2.50386 297.742 2.33199 297.924 2.16011 298.106C2.06636 298.205 1.73824 298.315 1.85282 298.377C14.8216 305.768 12.4362 310.033 14.8893 305.492C15.0872 305.153 14.7591 305.231 14.5299 305.07C13.0299 304.007 11.5664 302.893 10.0872 301.804C9.76428 301.304 9.44136 300.804 9.11844 300.304L8.85282 300.164C8.39969 300.247 7.94657 300.33 7.49865 300.414C5.95178 299.606 4.41532 298.783 2.86844 297.992C2.82678 297.971 2.48823 297.815 2.36323 297.856C2.29032 297.882 2.24344 297.95 2.19136 298.007C-1.24614 301.841 1.91011 298.211 14.6132 305.992C14.7382 306.065 14.7382 305.726 14.8112 305.601C14.9309 305.382 15.0507 305.169 15.1809 304.955C15.4205 304.56 15.6653 304.169 15.9101 303.778C23.7122 291.445 31.8893 279.356 40.1809 267.351C59.7851 239.164 79.2434 210.705 102.072 184.987C103.796 183.205 105.483 181.382 107.249 179.643C108.15 178.757 110.822 178.132 110.066 177.117C107.655 173.877 103.462 172.455 100.16 170.127C100.483 170.08 100.332 170.367 100.452 170.617C104.254 172.466 108.046 174.336 111.863 176.158C111.962 176.205 111.686 176.023 111.613 175.945C111.452 175.752 111.306 175.549 111.16 175.346C109.613 173.195 108.233 170.929 106.806 168.7C92.457 145.362 79.4257 121.231 66.9205 96.8616C58.6966 80.2887 53.2487 69.7678 45.7278 52.7991C38.9257 37.4397 32.3684 21.6949 28.9101 5.18449L18.6393 0.111572Z" fill="#5CC59E"/>
</svg>
