<svg width="67" height="291" viewBox="0 0 67 291" fill="none" xmlns="http://www.w3.org/2000/svg">
<path d="M55.3685 0.574951C54.2487 6.80412 53.3581 11.5489 52.3997 18.1375C50.9518 28.0385 47.8633 52.3145 46.7122 60.976C42.4518 93.1218 43.5299 84.9812 38.7226 117.825C33.5508 151.153 27.3841 184.335 19.7903 217.195C16.8945 229.747 15.6549 234.221 12.582 246.065C9.67576 256.986 6.71222 267.908 2.96743 278.575C2.46743 280.101 1.77472 281.575 1.37368 283.132C1.27472 283.419 1.2643 283.742 1.15493 284.023C-0.235698 287.294 0.196594 286.132 10.3997 288.44C11.3633 288.658 9.34243 286.768 8.81118 285.934L8.55076 285.783C-1.86591 285.565 17.0508 285.575 14.457 290.773C14.4049 290.601 14.3789 290.372 14.4987 290.242C14.8893 288.674 15.3789 287.137 15.7643 285.57C18.5195 274.377 20.8528 263.085 23.2643 251.815C31.8164 208.632 39.4258 165.273 46.1862 121.773C49.1237 102.96 51.957 84.1322 54.9622 65.3354C57.3789 50.252 59.3268 38.1843 62.3893 23.476C63.8789 16.3197 64.832 12.9812 66.5299 6.59058L55.3685 0.574951Z" fill="#5CC59E"/>
</svg>
