<svg width="181" height="332" viewBox="0 0 181 332" fill="none" xmlns="http://www.w3.org/2000/svg">
<path d="M0.722656 28.9605C7.50391 53.0855 14.2227 77.2521 20.2643 101.575C22.8789 112.101 25.306 122.679 27.8268 133.231C39.3633 183.039 48.9362 233.304 55.9727 283.945C57.0299 293.179 58.4362 302.403 59.0508 311.684C59.3164 315.945 53.8893 318.367 69.2487 317.237C70.9206 317.112 69.3477 313.882 69.4466 312.21C69.6497 308.789 69.9206 305.367 70.155 301.95C73.5612 262.263 77.8529 222.653 81.957 183.033C83.7904 164.507 85.78 145.997 87.8372 127.492C88.4883 123.299 91.3425 118.57 78.181 121.487C76.2018 121.924 78.9935 125.455 79.4518 127.429C82.2227 139.351 83.1081 142.195 86.5716 155.19C95.1497 186.554 105.759 217.304 115.645 248.268C121.207 265.69 122.79 270.96 127.931 287.643C131.082 297.945 134.145 308.268 137.103 318.627C137.874 321.325 138.598 324.033 139.441 326.71C143.087 327.57 147.342 331.487 150.374 329.294C153.129 327.299 150.04 322.502 149.952 319.106C149.806 313.492 149.676 307.877 149.681 302.257C149.697 283.783 150.145 270.695 151.264 251.888C151.921 240.862 152.816 229.851 153.598 218.83C158.509 161.205 164.962 103.716 173.301 46.4813C175.431 33.273 177.306 19.9969 180.108 6.90838C180.4 4.15838 178.618 4.80942 174.697 3.35109C174.155 3.14797 175.634 4.01255 176.103 4.34588L176.384 4.46047C175.868 1.68963 170.072 -2.03953 169.613 1.35109C168.27 15.0803 167.202 28.8355 165.816 42.5594C160.322 100.492 154.957 158.44 148.733 216.299C147.603 227.143 146.368 237.976 145.348 248.83C143.598 267.429 142.796 279.924 141.691 298.169C141.358 303.58 141.124 308.997 140.775 314.408C140.572 317.565 138.473 321.117 140.03 323.867C142.129 327.58 146.931 328.882 150.384 331.393C150.072 331.158 149.65 331.023 149.441 330.69C148.853 329.726 146.301 322.96 146.296 322.955C142.342 312.341 138.733 301.601 134.931 290.934C119.858 247.341 104.874 203.606 93.9779 158.747C91.4622 146.924 90.3581 143.059 88.8633 132.049C88.6185 130.237 89.6029 127.95 88.3841 126.596C85.6706 123.565 81.5977 122.101 78.0925 120.044C77.3945 119.632 80.9518 126.028 78.1341 122.46C77.53 141.455 76.431 160.429 74.9466 179.382C73.6081 195.664 73.0143 203.674 71.3477 220.2C68.7383 246.007 65.3581 271.726 61.3893 297.351C60.8372 300.612 60.3008 303.872 59.7331 307.122C59.457 308.71 57.806 310.648 58.8529 311.872C61.4518 314.898 65.655 316.033 69.1029 318.033C69.2175 318.101 68.9414 317.82 68.8893 317.7C68.78 317.434 68.6445 316.601 68.6081 316.408C66.8737 306.684 64.7487 297.028 62.8893 287.325C52.6549 236.414 42.332 185.523 31.1237 134.815C28.7747 124.346 26.4258 113.872 24.0768 103.403C18.832 80.0334 13.2383 56.7105 9.42578 33.0542L0.722656 28.9605Z" fill="#5CC59E"/>
</svg>
